<?xml version="1.0"?><svg width="640" height="480" xmlns="http://www.w3.org/2000/svg">
 <title>Thumbs down smiley</title>
 <metadata id="metadata6">Frank Bruderimage/svg+xmlThumbs up smiley</metadata>
 <g>
  <title>Layer 1</title>
  <circle fill="#efff00" stroke="#000000" stroke-width="7" id="circle8" r="207.999969" cy="217.590896" cx="387.354522"/>
  <circle stroke-width="13" fill="#000000" id="circle10" r="70.499969" cy="137.600002" cx="469.066668"/>
  <circle fill="#000000" id="circle12" r="71" cy="141.099923" cx="308.494178"/>
  <path fill="none" stroke="#000000" stroke-width="10" id="path14" d="m524.304199,359.901154c0.036377,-53.186066 -60.331299,-96.315765 -134.810242,-96.315765c-74.479645,0 -134.847305,43.1297 -134.810211,96.315765"/>
  <g stroke="#000000" stroke-width="2" stroke-linejoin="round" id="g16">
   <path stroke-width="9" fill="#efff00" id="path18" d="m181.504654,273.262421c19.994537,0.977478 37.052795,-13.352081 38.100525,-32.00592c1.047867,-18.654053 -14.311417,-34.56868 -34.30574,-35.546326l7.240479,0.354019c19.328156,0.94516 35.817596,-12.906693 36.830627,-30.93898c1.012878,-18.03215 -13.834335,-33.416245 -33.162308,-34.361206l-10.734543,-2.782928c17.994965,0.879929 33.347427,-12.016609 34.290436,-28.805336c0.943161,-16.788544 -12.880142,-31.111557 -30.875336,-31.991493l-20.451813,-2.12886c15.324234,0.742134 28.393753,-10.242134 29.196793,-24.538651c0.803207,-14.296524 -10.964127,-26.49515 -26.287659,-27.251389l-100.799858,-15.089066c-13.425388,1.126791 -25.404213,8.325891 -32.055237,19.264223c-6.651011,10.938501 -7.128035,24.225039 -1.276363,35.554056c-11.634382,7.162632 -19.388062,18.662457 -21.27108,31.547993c-1.883003,12.885544 2.287943,25.902153 11.442627,35.709061c-10.328157,8.700226 -16.136509,21.131104 -15.938649,34.112289c0.197673,12.981003 6.381989,25.252899 16.971065,33.675812c-8.956291,11.167984 -11.869493,25.573761 -7.89068,39.018402c3.978985,13.444794 14.402119,24.415329 28.231499,29.713791l132.745216,6.490509zm-113.436798,-5.546387l33.673462,46.804749l4.136467,34.071198c-13.817047,33.921661 -12.099808,79.866333 3.949295,105.651642c16.048935,25.785339 41.065758,22.793427 57.527122,-6.879944c16.461411,-29.673401 18.865692,-76.110931 5.528641,-106.785187l9.828644,-67.25708l-114.643631,-5.605377z"/>
   <path stroke-width="9" fill="none" stroke-linecap="round" id="path20" d="m185.299438,205.710175l-84.474373,-4.130249m84.648628,-63.598846l-76.026817,-3.717209m58.990105,-59.208481l-56.591911,-5.024986"/>
  </g>
  <rect id="svg_1" height="0" width="1" y="224" x="403" stroke-linecap="null" stroke-linejoin="null" stroke-dasharray="null" stroke-width="null" fill="#000000"/>
 </g>
</svg>